<mxfile host="app.diagrams.net" modified="2021-09-09T17:41:30.072Z" agent="5.0 (Windows NT 10.0; Win64; x64) AppleWebKit/537.36 (KHTML, like Gecko) Chrome/86.0.4240.183 Safari/537.36" etag="Ety4vQLsokESS8ZtIg3L" version="15.1.4" type="github">
  <diagram id="dKjkxQiRWpnGpU8tR1Py" name="Page-1">
    <mxGraphModel dx="1422" dy="794" grid="1" gridSize="10" guides="1" tooltips="1" connect="1" arrows="1" fold="1" page="1" pageScale="1" pageWidth="827" pageHeight="1169" math="0" shadow="0">
      <root>
        <mxCell id="0" />
        <mxCell id="1" parent="0" />
        <mxCell id="2V73cLbyX__GQGyzQmy8-1" value="Человек" style="shape=umlActor;verticalLabelPosition=bottom;verticalAlign=top;html=1;outlineConnect=0;" vertex="1" parent="1">
          <mxGeometry x="50" y="290" width="30" height="60" as="geometry" />
        </mxCell>
        <mxCell id="2V73cLbyX__GQGyzQmy8-2" value="" style="endArrow=classic;html=1;exitX=0.5;exitY=0;exitDx=0;exitDy=0;exitPerimeter=0;" edge="1" parent="1" source="2V73cLbyX__GQGyzQmy8-1">
          <mxGeometry width="50" height="50" relative="1" as="geometry">
            <mxPoint x="390" y="430" as="sourcePoint" />
            <mxPoint x="65" y="230" as="targetPoint" />
          </mxGeometry>
        </mxCell>
        <mxCell id="2V73cLbyX__GQGyzQmy8-3" value="Написать текст нужным цветом" style="ellipse;whiteSpace=wrap;html=1;" vertex="1" parent="1">
          <mxGeometry x="5" y="150" width="120" height="80" as="geometry" />
        </mxCell>
        <mxCell id="2V73cLbyX__GQGyzQmy8-4" value="Выбрать маркер" style="ellipse;whiteSpace=wrap;html=1;" vertex="1" parent="1">
          <mxGeometry x="200" y="270" width="120" height="80" as="geometry" />
        </mxCell>
        <mxCell id="2V73cLbyX__GQGyzQmy8-5" value="" style="endArrow=classic;html=1;exitX=1;exitY=0.3333333333333333;exitDx=0;exitDy=0;exitPerimeter=0;entryX=0;entryY=0.5;entryDx=0;entryDy=0;" edge="1" parent="1" source="2V73cLbyX__GQGyzQmy8-1" target="2V73cLbyX__GQGyzQmy8-4">
          <mxGeometry width="50" height="50" relative="1" as="geometry">
            <mxPoint x="390" y="430" as="sourcePoint" />
            <mxPoint x="440" y="380" as="targetPoint" />
          </mxGeometry>
        </mxCell>
        <mxCell id="2V73cLbyX__GQGyzQmy8-14" value="" style="edgeStyle=orthogonalEdgeStyle;rounded=0;orthogonalLoop=1;jettySize=auto;html=1;entryX=0;entryY=0.5;entryDx=0;entryDy=0;" edge="1" parent="1" source="2V73cLbyX__GQGyzQmy8-7" target="2V73cLbyX__GQGyzQmy8-21">
          <mxGeometry relative="1" as="geometry">
            <mxPoint x="650" y="180" as="targetPoint" />
          </mxGeometry>
        </mxCell>
        <mxCell id="2V73cLbyX__GQGyzQmy8-7" value="Зеленый маркер" style="ellipse;whiteSpace=wrap;html=1;" vertex="1" parent="1">
          <mxGeometry x="450" y="140" width="120" height="80" as="geometry" />
        </mxCell>
        <mxCell id="2V73cLbyX__GQGyzQmy8-17" style="edgeStyle=orthogonalEdgeStyle;rounded=0;orthogonalLoop=1;jettySize=auto;html=1;exitX=1;exitY=0.5;exitDx=0;exitDy=0;entryX=0;entryY=0.5;entryDx=0;entryDy=0;" edge="1" parent="1" source="2V73cLbyX__GQGyzQmy8-8" target="2V73cLbyX__GQGyzQmy8-21">
          <mxGeometry relative="1" as="geometry">
            <mxPoint x="650" y="310" as="targetPoint" />
          </mxGeometry>
        </mxCell>
        <mxCell id="2V73cLbyX__GQGyzQmy8-8" value="Черный маркер" style="ellipse;whiteSpace=wrap;html=1;" vertex="1" parent="1">
          <mxGeometry x="450" y="270" width="120" height="80" as="geometry" />
        </mxCell>
        <mxCell id="2V73cLbyX__GQGyzQmy8-18" style="edgeStyle=orthogonalEdgeStyle;rounded=0;orthogonalLoop=1;jettySize=auto;html=1;exitX=1;exitY=0.5;exitDx=0;exitDy=0;entryX=0;entryY=0.5;entryDx=0;entryDy=0;" edge="1" parent="1" source="2V73cLbyX__GQGyzQmy8-9" target="2V73cLbyX__GQGyzQmy8-21">
          <mxGeometry relative="1" as="geometry">
            <mxPoint x="650" y="450" as="targetPoint" />
          </mxGeometry>
        </mxCell>
        <mxCell id="2V73cLbyX__GQGyzQmy8-9" value="Красный маркер" style="ellipse;whiteSpace=wrap;html=1;" vertex="1" parent="1">
          <mxGeometry x="450" y="410" width="120" height="80" as="geometry" />
        </mxCell>
        <mxCell id="2V73cLbyX__GQGyzQmy8-10" value="" style="endArrow=block;dashed=1;endFill=0;endSize=12;html=1;exitX=0;exitY=0.5;exitDx=0;exitDy=0;entryX=1;entryY=0.5;entryDx=0;entryDy=0;" edge="1" parent="1" source="2V73cLbyX__GQGyzQmy8-7" target="2V73cLbyX__GQGyzQmy8-4">
          <mxGeometry width="160" relative="1" as="geometry">
            <mxPoint x="330" y="400" as="sourcePoint" />
            <mxPoint x="490" y="400" as="targetPoint" />
          </mxGeometry>
        </mxCell>
        <mxCell id="2V73cLbyX__GQGyzQmy8-11" value="" style="endArrow=block;dashed=1;endFill=0;endSize=12;html=1;exitX=0;exitY=0.5;exitDx=0;exitDy=0;" edge="1" parent="1" source="2V73cLbyX__GQGyzQmy8-8" target="2V73cLbyX__GQGyzQmy8-4">
          <mxGeometry width="160" relative="1" as="geometry">
            <mxPoint x="460" y="190" as="sourcePoint" />
            <mxPoint x="330" y="320" as="targetPoint" />
          </mxGeometry>
        </mxCell>
        <mxCell id="2V73cLbyX__GQGyzQmy8-12" value="" style="endArrow=block;dashed=1;endFill=0;endSize=12;html=1;exitX=0;exitY=0.5;exitDx=0;exitDy=0;" edge="1" parent="1" source="2V73cLbyX__GQGyzQmy8-9">
          <mxGeometry width="160" relative="1" as="geometry">
            <mxPoint x="470" y="200" as="sourcePoint" />
            <mxPoint x="320" y="310" as="targetPoint" />
          </mxGeometry>
        </mxCell>
        <mxCell id="2V73cLbyX__GQGyzQmy8-21" value="Написать текст выбранным цветом" style="ellipse;whiteSpace=wrap;html=1;" vertex="1" parent="1">
          <mxGeometry x="700" y="270" width="120" height="80" as="geometry" />
        </mxCell>
        <mxCell id="2V73cLbyX__GQGyzQmy8-32" style="edgeStyle=orthogonalEdgeStyle;rounded=0;orthogonalLoop=1;jettySize=auto;html=1;exitX=1;exitY=0.5;exitDx=0;exitDy=0;entryX=0.5;entryY=0;entryDx=0;entryDy=0;" edge="1" parent="1" source="2V73cLbyX__GQGyzQmy8-22" target="2V73cLbyX__GQGyzQmy8-4">
          <mxGeometry relative="1" as="geometry">
            <Array as="points">
              <mxPoint x="1110" y="210" />
              <mxPoint x="1110" y="100" />
              <mxPoint x="260" y="100" />
            </Array>
          </mxGeometry>
        </mxCell>
        <mxCell id="2V73cLbyX__GQGyzQmy8-22" value="Нужно добавить текст" style="ellipse;whiteSpace=wrap;html=1;" vertex="1" parent="1">
          <mxGeometry x="970" y="170" width="120" height="80" as="geometry" />
        </mxCell>
        <mxCell id="2V73cLbyX__GQGyzQmy8-24" value="" style="endArrow=block;dashed=1;endFill=0;endSize=12;html=1;exitX=0;exitY=0.5;exitDx=0;exitDy=0;entryX=1;entryY=0.5;entryDx=0;entryDy=0;" edge="1" parent="1" source="2V73cLbyX__GQGyzQmy8-22" target="2V73cLbyX__GQGyzQmy8-21">
          <mxGeometry width="160" relative="1" as="geometry">
            <mxPoint x="740" y="300" as="sourcePoint" />
            <mxPoint x="900" y="300" as="targetPoint" />
          </mxGeometry>
        </mxCell>
        <mxCell id="2V73cLbyX__GQGyzQmy8-34" value="" style="edgeStyle=orthogonalEdgeStyle;rounded=0;orthogonalLoop=1;jettySize=auto;html=1;" edge="1" parent="1" source="2V73cLbyX__GQGyzQmy8-25" target="2V73cLbyX__GQGyzQmy8-33">
          <mxGeometry relative="1" as="geometry" />
        </mxCell>
        <mxCell id="2V73cLbyX__GQGyzQmy8-25" value="Допустил ошибку" style="ellipse;whiteSpace=wrap;html=1;" vertex="1" parent="1">
          <mxGeometry x="970" y="270" width="120" height="80" as="geometry" />
        </mxCell>
        <mxCell id="2V73cLbyX__GQGyzQmy8-26" value="" style="endArrow=block;dashed=1;endFill=0;endSize=12;html=1;exitX=0;exitY=0.5;exitDx=0;exitDy=0;entryX=1;entryY=0.5;entryDx=0;entryDy=0;" edge="1" parent="1" source="2V73cLbyX__GQGyzQmy8-25" target="2V73cLbyX__GQGyzQmy8-21">
          <mxGeometry width="160" relative="1" as="geometry">
            <mxPoint x="970" y="220" as="sourcePoint" />
            <mxPoint x="830" y="320" as="targetPoint" />
          </mxGeometry>
        </mxCell>
        <mxCell id="2V73cLbyX__GQGyzQmy8-30" value="" style="edgeStyle=orthogonalEdgeStyle;rounded=0;orthogonalLoop=1;jettySize=auto;html=1;" edge="1" parent="1" source="2V73cLbyX__GQGyzQmy8-27" target="2V73cLbyX__GQGyzQmy8-29">
          <mxGeometry relative="1" as="geometry" />
        </mxCell>
        <mxCell id="2V73cLbyX__GQGyzQmy8-27" value="Закончил" style="ellipse;whiteSpace=wrap;html=1;" vertex="1" parent="1">
          <mxGeometry x="970" y="400" width="120" height="80" as="geometry" />
        </mxCell>
        <mxCell id="2V73cLbyX__GQGyzQmy8-28" value="" style="endArrow=block;dashed=1;endFill=0;endSize=12;html=1;exitX=0;exitY=0.5;exitDx=0;exitDy=0;entryX=1;entryY=0.5;entryDx=0;entryDy=0;" edge="1" parent="1" source="2V73cLbyX__GQGyzQmy8-27" target="2V73cLbyX__GQGyzQmy8-21">
          <mxGeometry width="160" relative="1" as="geometry">
            <mxPoint x="980" y="320" as="sourcePoint" />
            <mxPoint x="830" y="320" as="targetPoint" />
          </mxGeometry>
        </mxCell>
        <mxCell id="2V73cLbyX__GQGyzQmy8-29" value="Положить маркер" style="ellipse;whiteSpace=wrap;html=1;" vertex="1" parent="1">
          <mxGeometry x="1170" y="400" width="120" height="80" as="geometry" />
        </mxCell>
        <mxCell id="2V73cLbyX__GQGyzQmy8-33" value="Стереть ненужный текст&amp;nbsp;" style="ellipse;whiteSpace=wrap;html=1;" vertex="1" parent="1">
          <mxGeometry x="1170" y="270" width="120" height="80" as="geometry" />
        </mxCell>
        <mxCell id="2V73cLbyX__GQGyzQmy8-41" style="edgeStyle=orthogonalEdgeStyle;rounded=0;orthogonalLoop=1;jettySize=auto;html=1;exitX=0.5;exitY=0;exitDx=0;exitDy=0;entryX=0.15;entryY=0.075;entryDx=0;entryDy=0;entryPerimeter=0;" edge="1" parent="1" source="2V73cLbyX__GQGyzQmy8-35" target="2V73cLbyX__GQGyzQmy8-4">
          <mxGeometry relative="1" as="geometry">
            <Array as="points">
              <mxPoint x="1420" y="60" />
              <mxPoint x="218" y="60" />
            </Array>
          </mxGeometry>
        </mxCell>
        <mxCell id="2V73cLbyX__GQGyzQmy8-35" value="Нужно добавить текст" style="ellipse;whiteSpace=wrap;html=1;" vertex="1" parent="1">
          <mxGeometry x="1360" y="160" width="120" height="80" as="geometry" />
        </mxCell>
        <mxCell id="2V73cLbyX__GQGyzQmy8-36" value="" style="endArrow=block;dashed=1;endFill=0;endSize=12;html=1;exitX=0;exitY=0.5;exitDx=0;exitDy=0;entryX=1;entryY=0.5;entryDx=0;entryDy=0;" edge="1" parent="1" source="2V73cLbyX__GQGyzQmy8-35" target="2V73cLbyX__GQGyzQmy8-33">
          <mxGeometry width="160" relative="1" as="geometry">
            <mxPoint x="1130" y="290" as="sourcePoint" />
            <mxPoint x="1290" y="290" as="targetPoint" />
          </mxGeometry>
        </mxCell>
        <mxCell id="2V73cLbyX__GQGyzQmy8-37" value="" style="edgeStyle=orthogonalEdgeStyle;rounded=0;orthogonalLoop=1;jettySize=auto;html=1;" edge="1" parent="1" source="2V73cLbyX__GQGyzQmy8-38" target="2V73cLbyX__GQGyzQmy8-39">
          <mxGeometry relative="1" as="geometry" />
        </mxCell>
        <mxCell id="2V73cLbyX__GQGyzQmy8-38" value="Закончил" style="ellipse;whiteSpace=wrap;html=1;" vertex="1" parent="1">
          <mxGeometry x="1370" y="330" width="120" height="80" as="geometry" />
        </mxCell>
        <mxCell id="2V73cLbyX__GQGyzQmy8-39" value="Положить маркер" style="ellipse;whiteSpace=wrap;html=1;" vertex="1" parent="1">
          <mxGeometry x="1570" y="330" width="120" height="80" as="geometry" />
        </mxCell>
        <mxCell id="2V73cLbyX__GQGyzQmy8-40" value="" style="endArrow=block;dashed=1;endFill=0;endSize=12;html=1;exitX=0;exitY=0.5;exitDx=0;exitDy=0;" edge="1" parent="1" source="2V73cLbyX__GQGyzQmy8-38">
          <mxGeometry width="160" relative="1" as="geometry">
            <mxPoint x="980" y="450" as="sourcePoint" />
            <mxPoint x="1290" y="310" as="targetPoint" />
          </mxGeometry>
        </mxCell>
      </root>
    </mxGraphModel>
  </diagram>
</mxfile>
